<svg width="28" height="45" viewBox="0 0 28 45" fill="none" xmlns="http://www.w3.org/2000/svg">
<path fill-rule="evenodd" clip-rule="evenodd" d="M13.8875 44.4309H13.8744C13.6761 44.4309 13.4773 44.3716 13.3015 44.2523L0.508383 35.5694C0.495436 35.5609 0.483422 35.5521 0.471106 35.5432L0.469869 35.5421L0.469567 35.5419C0.316901 35.4289 0.197222 35.2781 0.116965 35.1065L0.116359 35.1056V35.1053C0.0807736 35.0288 0.0532136 34.9494 0.033957 34.868L0.0336541 34.8667C-0.00162874 34.7181 -0.00978064 34.5608 0.0121008 34.4037C0.0157856 34.3756 0.0208836 34.3477 0.026436 34.3199L4.19279 13.7015C4.20988 13.6094 4.23701 13.5201 4.2735 13.4357C4.2866 13.4052 4.30091 13.3757 4.31618 13.3468L4.31633 13.3465L4.31648 13.3457C4.33836 13.3051 4.36224 13.2658 4.38826 13.2282L13.0036 0.478697C13.2108 0.172029 13.5369 0 13.8747 0H13.8872C14.2252 0 14.5513 0.172003 14.7583 0.478697L23.3733 13.2276C23.4078 13.277 23.4382 13.3296 23.4648 13.3842L23.4651 13.3846C23.4654 13.385 23.4656 13.3853 23.4657 13.3858L23.466 13.3862L23.4665 13.3873L23.4668 13.3878C23.4669 13.3882 23.4669 13.3886 23.4674 13.3889L23.4676 13.3895C23.4677 13.3898 23.4679 13.3901 23.468 13.3906L23.4683 13.3912C23.4685 13.3915 23.4686 13.392 23.4689 13.3925V13.393L23.4695 13.3939C23.4697 13.3942 23.4698 13.3945 23.47 13.395C23.4704 13.3953 23.4704 13.3956 23.4706 13.3961L23.4709 13.3964C23.4709 13.397 23.4712 13.3972 23.4713 13.3978V13.3981L23.4723 13.3996C23.4726 13.4 23.4727 13.4007 23.4731 13.4011V13.4013C23.5174 13.4959 23.5498 13.597 23.569 13.7018L27.7354 34.3199C27.7411 34.3476 27.746 34.3756 27.7499 34.4037C27.7717 34.5608 27.7633 34.718 27.7283 34.8667C27.7283 34.8671 27.728 34.8676 27.728 34.8679C27.7089 34.9494 27.6812 35.0288 27.6456 35.1052V35.1056C27.6454 35.1059 27.6453 35.1062 27.6453 35.1065C27.5647 35.278 27.4449 35.4289 27.2922 35.5419L27.2921 35.542C27.2916 35.5425 27.2915 35.5428 27.2908 35.5431C27.2785 35.5521 27.2665 35.5609 27.2536 35.5693L14.4605 44.2523C14.2849 44.3716 14.0858 44.4309 13.8874 44.4309L13.8875 44.4309ZM17.2294 35.7464L15.8092 40.5777L22.9276 35.7464H17.2294ZM4.83447 35.7464L11.953 40.5777L10.5323 35.7464H4.83447ZM12.7979 35.7464L13.881 39.4309L14.9644 35.7464H12.7979ZM17.9169 33.4082H24.8306L20.4042 24.9473L17.9169 33.4082ZM12.1106 33.4082H15.6514L18.9536 22.175L13.881 12.4781L8.80826 22.175L12.1106 33.4082ZM2.93132 33.4082H9.84529L7.35782 24.9473L2.93132 33.4082ZM5.44495 18.4406L3.66024 27.2728L6.46518 21.9108L5.44495 18.4406ZM21.2969 21.9108L24.1016 27.2726L22.3171 18.4404L21.2969 21.9108ZM6.44623 14.141L7.91531 19.1385L12.7953 9.81098V4.74549L6.44623 14.141ZM14.9665 9.81098L19.8464 19.1385L21.3158 14.141L14.9665 4.74565L14.9665 9.81098Z" fill="#000" fill-opacity="0.52"/>
</svg>
